<?xml version="1.0" encoding="UTF-8"?>
<svg width="100pt" height="100pt" version="1.1" viewBox="0 0 100 100" xmlns="http://www.w3.org/2000/svg">
 <path d="m19 6c-3.2891 0-6 2.7109-6 6v11h-4c-2.1797 0-4 1.8203-4 4v14c0 2.1797 1.8203 4 4 4h4v35c0 1.1016 0.89453 2 2 2h2v6c0 3.2891 2.7109 6 6 6h4c3.2891 0 6-2.7109 6-6v-6h34v6c0 3.2891 2.7109 6 6 6h4c3.2891 0 6-2.7109 6-6v-6h2c1.1055 0 2-0.89844 2-2v-35h4c2.1797 0 4-1.8203 4-4v-14c0-2.1797-1.8203-4-4-4h-4v-11c0-3.2891-2.7109-6-6-6zm0 4h62c1.1445 0 2 0.85938 2 2v4h-66v-4c0-1.1406 0.85547-2 2-2zm-2 10h31v28h-31zm35 0h31v28h-31zm-43 7h4v14h-4zm78 0h4v14h-4zm-70 25h66v26h-66zm11 6c-3.8438 0-7 3.1562-7 7s3.1562 7 7 7 7-3.1562 7-7-3.1562-7-7-7zm44 0c-3.8438 0-7 3.1562-7 7s3.1562 7 7 7 7-3.1562 7-7-3.1562-7-7-7zm-44 4c1.6797 0 3 1.3203 3 3s-1.3203 3-3 3-3-1.3203-3-3 1.3203-3 3-3zm44 0c1.6797 0 3 1.3203 3 3s-1.3203 3-3 3-3-1.3203-3-3 1.3203-3 3-3zm-32 1c-1.1055 0-2 0.89453-2 2v8c0 1.1016 0.89453 2 2 2h20c1.1055 0 2-0.89844 2-2v-8c0-1.1055-0.89453-2-2-2zm2 4h16v4h-16zm-21 15h8v6c0 1.1445-0.85547 2-2 2h-4c-1.1445 0-2-0.85547-2-2zm50 0h8v6c0 1.1445-0.85547 2-2 2h-4c-1.1445 0-2-0.85547-2-2z"/>
</svg>
