<?xml version="1.0" encoding="UTF-8"?>
<svg width="100pt" height="100pt" version="1.1" viewBox="0 0 100 100" xmlns="http://www.w3.org/2000/svg">
 <g>
  <path d="m10.172 68.895c-3.5352 0-6.4141-2.875-6.4141-6.4062 0-3.5352 2.8828-6.4141 6.4141-6.4141 3.5273 0 6.4062 2.8789 6.4062 6.4141 0 3.5312-2.8789 6.4062-6.4062 6.4062zm0-10.281c-2.1367 0-3.8711 1.7383-3.8711 3.8711s1.7383 3.8672 3.8711 3.8672c2.1289 0 3.8633-1.7344 3.8633-3.8672s-1.7344-3.8711-3.8633-3.8711z"/>
  <path d="m23.152 68.895c-3.5391 0-6.4141-2.875-6.4141-6.4062 0-3.5352 2.875-6.4141 6.4141-6.4141 3.5312 0 6.4062 2.8789 6.4062 6.4141 0 3.5312-2.875 6.4062-6.4062 6.4062zm0-10.281c-2.1367 0-3.8711 1.7383-3.8711 3.8711s1.7383 3.8672 3.8711 3.8672c2.1289 0 3.8633-1.7344 3.8633-3.8672s-1.7344-3.8711-3.8633-3.8711z"/>
  <path d="m54.02 68.895c-3.5352 0-6.4102-2.875-6.4102-6.4062 0-3.5352 2.875-6.4141 6.4102-6.4141 3.5352 0 6.4062 2.8789 6.4062 6.4141 0 3.5312-2.8711 6.4062-6.4062 6.4062zm0-10.281c-2.1367 0-3.8672 1.7383-3.8672 3.8711s1.7344 3.8672 3.8672 3.8672c2.1328 0 3.8633-1.7344 3.8633-3.8672s-1.7344-3.8711-3.8633-3.8711z"/>
  <path d="m67 68.895c-3.5352 0-6.4141-2.875-6.4141-6.4062 0-3.5352 2.8828-6.4141 6.4141-6.4141 3.5352 0 6.4062 2.8789 6.4062 6.4141 0 3.5312-2.8711 6.4062-6.4062 6.4062zm0-10.281c-2.1367 0-3.8711 1.7383-3.8711 3.8711s1.7383 3.8672 3.8711 3.8672 3.8633-1.7344 3.8633-3.8672-1.7344-3.8711-3.8633-3.8711z"/>
  <path d="m86.188 68.895c-3.5391 0-6.4141-2.875-6.4141-6.4062 0-3.5352 2.875-6.4141 6.4141-6.4141 3.5312 0 6.3984 2.8789 6.3984 6.4141 0.003906 3.5312-2.8672 6.4062-6.3984 6.4062zm0-10.281c-2.1367 0-3.875 1.7383-3.875 3.8711s1.7383 3.8672 3.875 3.8672c2.125 0 3.8594-1.7344 3.8594-3.8672s-1.7344-3.8711-3.8594-3.8711z"/>
  <path d="m80.086 58.613h-76.418c-0.69922 0-1.2695-0.56641-1.2695-1.2695l-0.003907-24.965c0-0.70312 0.57031-1.2695 1.2695-1.2695h76.418c0.69922 0 1.2695 0.57031 1.2695 1.2695v24.965c0.003907 0.70312-0.56641 1.2695-1.2656 1.2695zm-75.148-2.543h73.875v-22.422h-73.875z"/>
  <path d="m96.332 61.801h-5.4023c-0.51563 0-0.98047-0.3125-1.1758-0.78906-0.59766-1.457-1.9961-2.3984-3.5664-2.3984-1.5742 0-2.9805 0.94141-3.582 2.4023-0.19922 0.47656-0.66016 0.78516-1.1758 0.78516h-1.3477c-0.70312 0-1.2695-0.57031-1.2695-1.2695v-21.621c0-0.70312 0.56641-1.2695 1.2695-1.2695 6.8945 0 11.902 1.5391 14.883 4.5742 2.6641 2.7188 2.6406 5.6484 2.6367 5.7734l0.003907 12.543c0 0.69922-0.57031 1.2695-1.2734 1.2695zm-4.6133-2.5391h3.3438v-11.301c0-0.31641-0.17578-7.3477-13.703-7.7617v18.066c1.1914-1.3711 2.9375-2.1953 4.832-2.1953 2.3047 0 4.3945 1.2266 5.5273 3.1914z"/>
  <path d="m81.043 63.758h-8.9102c-0.69922 0-1.2695-0.56641-1.2695-1.2695s0.57031-1.2695 1.2695-1.2695h8.9102c0.69922 0 1.2695 0.56641 1.2695 1.2695 0 0.69922-0.57031 1.2695-1.2695 1.2695z"/>
  <path d="m48.402 63.758h-20.117c-0.70312 0-1.2695-0.56641-1.2695-1.2695s0.56641-1.2695 1.2695-1.2695h20.117c0.69922 0 1.2695 0.56641 1.2695 1.2695 0.003906 0.69922-0.57031 1.2695-1.2695 1.2695z"/>
  <path d="m96.332 53.262h-10.148c-0.70703 0-1.2695-0.56641-1.2695-1.2695v-8.0859c0-0.70312 0.56641-1.2695 1.2695-1.2695h8.5508c0.39453 0 0.76562 0.18359 1.0039 0.49219 1.8672 2.4141 1.8672 4.7461 1.8672 4.8477v4.0195c0 0.69531-0.57031 1.2656-1.2734 1.2656zm-8.8789-2.543h7.6055v-2.7578c0-0.054688-0.027344-1.3047-0.98047-2.7891h-6.625z"/>
 </g>
</svg>
