<?xml version="1.0" encoding="UTF-8"?>
<svg width="100pt" height="100pt" version="1.1" viewBox="0 0 100 100" xmlns="http://www.w3.org/2000/svg">
 <g>
  <path d="m73.199 2h-46.398c-3.3984 0-6.1992 2.8008-6.1992 6.1992v83.602c0 3.3984 2.8008 6.1992 6.1992 6.1992h46.398c3.3984 0 6.1992-2.8008 6.1992-6.1992v-83.602c0-3.3984-2.7969-6.1992-6.1992-6.1992zm-25.801 4.8008h8.8008c0.60156 0 1 0.60156 1 1 0 0.60156-0.39844 1.1992-1 1.1992h-8.8008c-0.60156 0-1-0.39844-1-1.1992-0.19922-0.40234 0.40234-1 1-1zm-3.5977 0c0.80078 0 1.1992 0.60156 1.1992 1 0 0.60156-0.39844 1.1992-1 1.1992h-0.19922c-0.60156 0-1-0.39844-1-1.1992 0-0.40234 0.39844-1 1-1zm-19.602 6.8008h9l-1 22.199 11 7.1992-5.8008 19.602-13.199 6.3984zm32.801 76.797-1 3.4023c-0.19922 0.60156-0.60156 1-1.1992 1h-9.8008c-0.60156 0-1-0.39844-1.1992-1l-1-3.3984c-0.19922-0.80078 0.39844-1.6016 1.1992-1.6016h11.801c1 0 1.5977 0.80078 1.1992 1.5977zm18.801-4.7969h-7l-3.6016-9.3984c-0.80078-0.19922-1.3984-0.60156-1.8008-1.1992h-0.80078l4 10.602-42.398-0.003907v-14.199l7.1992-3.6016 14.602 10.801 5-2.3984c-0.80078 0-1.6016-0.60156-2.1992-1.1992l-2.6016 1.1992-12.801-9.6016 5.6016-2.8008 4-13.801 14.199 4.6016 18.398-12.199 0.003906 43.199zm0-45.203-18.801 12.398-13.199-4.1992 3-10.398h-2l-1 3-2.6016-1.6016c-1-0.19922-2-0.80078-2.3984-1.6016h-0.19922l-4.3984-3 1-21.199h38l-10.398 15.199-5.1992 2c0.60156 0.39844 1 0.60156 1.1992 1.8008l5.1992-2 11.398-17h0.19922v26.602z"/>
  <path d="m51.398 71c-1.1992 0-2.1992 1-2.1992 2.1992s1 2.1992 2.1992 2.1992c1.1992 0 2.1992-1 2.1992-2.1992 0.003906-1.1992-0.99609-2.1992-2.1992-2.1992zm0 3.6016c-0.80078 0-1.3984-0.60156-1.3984-1.3984 0-0.80078 0.60156-1.3984 1.3984-1.3984 0.80078 0 1.3984 0.60156 1.3984 1.3984 0.003906 0.79688-0.59766 1.3984-1.3984 1.3984z"/>
  <path d="m52 73c0 0.80078-1.1992 0.80078-1.1992 0s1.1992-0.80078 1.1992 0"/>
  <path d="m65.801 71c-1.1992 0-2.1992 1-2.1992 2.1992s1 2.1992 2.1992 2.1992 2.1992-1 2.1992-2.1992-1-2.1992-2.1992-2.1992zm0 3.6016c-0.80078 0-1.3984-0.60156-1.3984-1.3984 0-0.80078 0.60156-1.3984 1.3984-1.3984 0.80078 0 1.3984 0.60156 1.3984 1.3984s-0.59766 1.3984-1.3984 1.3984z"/>
  <path d="m66.398 73c0 0.80078-1.1992 0.80078-1.1992 0s1.1992-0.80078 1.1992 0"/>
  <path d="m54.398 62.602-0.39844 1c-2.1992 0.19922-2.8008 0.19922-2.8008 0.39844s0 0.60156-0.19922 0.80078c-0.39844 0.39844-0.80078 1.6016-1 1.8008 0.39844 0 0.19922 0.19922 0.19922 1.1992 0 0.39844 0 0.80078-0.39844 1-0.60156 1-0.19922 0.60156-1 2.3984 0.60156-0.60156 1.3984-1.1992 2.3984-1.1992 1.8008 0 3.1992 1.3984 3.1992 3.1992v0.80078l8.3984 0.19922c-0.19922-0.39844-0.19922-0.80078 0-1.1992-0.39844 0.60156-0.19922 0.39844-4.1992 0-1.8008-0.19922-3.1992-0.19922-3.8008-2.1992-0.19922-0.19922-1.3984-3.1992-1.1992-3.8008 0 0.60156 1.1992 3.6016 1.1992 3.8008 0.60156 1.8008 2 2 3.8008 2.1992 4.1992 0.39844 4 0.39844 4.1992 0 0 0 0-0.80078 0.60156-1.3984 0.39844-1 0.39844-2 0-3.6016 0.39844 1.6016 0.19922 2.6016 0 3.3984 0.60156-0.80078 1.3984-1.1992 2.6016-1.1992 1 0 2 0.60156 2.6016 1.3984 0-0.19922-0.19922-0.39844-0.19922-0.60156-0.60156-1.1992-0.60156-1.8008-0.80078-2-0.19922-0.19922-1.6016-1-2-1.3984-0.39844 0-0.39844 0.19922-0.39844 0.19922-1.1992-1-4.8008-3.3984-4.8008-3.3984l0.19922-0.19922c-0.39844-0.19922-1.1992-0.39844-1.3984-0.39844l-0.19922-1c0-0.19922-0.19922-0.19922-0.39844-0.19922h-3.6016c-0.40234-0.20312-0.60547-0.20312-0.60547 0zm11.602 6c0-0.19922 0.19922 0 0.39844 0 0.39844 0 0.60156 0.19922 1 0.39844 0.39844 0.19922 0.60156 0.80078 0.39844 0.80078-0.60156 0-1-0.39844-1.6016-0.80078-0.19531-0.19922-0.39453-0.39844-0.19531-0.39844zm-5.3984 2.1992h-0.80078v0.80078h-0.80078v-0.80078h-0.80078v0.80078h-0.80078v-0.80078h-0.80078v-0.80078h0.80078v0.80078h0.80078v-0.80078h0.80078v0.80078h0.80078v-0.80078h0.80078zm-0.60156-6.4023c0.60156 0.19922 4.3984 3 4.3984 3.1992-0.19922 0-10.801-1-11-1 0-1.3984 0.19922-2.8008 0.60156-2.8008 0.60156 0.003906 3.6016-0.19531 6 0.60156z"/>
  <path d="m41.398 34c-1.1992 0-2.1992 1-2.1992 2.1992s1 2.1992 2.1992 2.1992c1.1992 0 2.1992-1 2.1992-2.1992 0.003906-1.1992-0.99609-2.1992-2.1992-2.1992zm0 3.6016c-0.80078 0-1.3984-0.60156-1.3984-1.3984 0-0.80078 0.60156-1.3984 1.3984-1.3984 0.80078 0 1.3984 0.60156 1.3984 1.3984 0.003906 0.79688-0.59766 1.3984-1.3984 1.3984z"/>
  <path d="m42 36.199c0 0.80078-1.1992 0.80078-1.1992 0s1.1992-0.80078 1.1992 0"/>
  <path d="m56 34c-1.1992 0-2.1992 1-2.1992 2.1992s1 2.1992 2.1992 2.1992 2.1992-1 2.1992-2.1992c-0.19922-1.1992-1.1992-2.1992-2.1992-2.1992zm0 3.6016c-0.80078 0-1.3984-0.60156-1.3984-1.3984 0-0.80078 0.60156-1.3984 1.3984-1.3984 0.80078 0 1.3984 0.60156 1.3984 1.3984s-0.59766 1.3984-1.3984 1.3984z"/>
  <path d="m56.398 36.199c0 0.80078-1.1992 0.80078-1.1992 0s1.1992-0.80078 1.1992 0"/>
  <path d="m57.398 31.801c-0.19922-0.19922-1.6016-1-2-1.3984-0.39844 0-0.39844 0.19922-0.39844 0.19922-1.1992-1-4.8008-3.3984-4.8008-3.3984l0.19922-0.19922c-0.39844-0.19922-1.1992-0.39844-1.3984-0.39844l-0.19922-1c0-0.19922-0.19922-0.19922-0.39844-0.19922h-3.6016c-0.19922 0-0.19922 0-0.39844 0.19922l-0.19922 1c-2.1992 0.19922-2.8008 0.19922-2.8008 0.39844 0 0.19922 0 0.60156-0.19922 0.80078-0.39844 0.39844-0.80078 1.6016-1 1.8008 0.39844 0 0.19922 0.19922 0.19922 1.1992 0 0.39844 0 0.80078-0.39844 1-0.60156 1-0.19922 0.60156-0.80078 2.3984 0.60156-0.60156 1.3984-1.1992 2.3984-1.1992 1.8008 0 3.1992 1.3984 3.1992 3.1992v0.80078l8.3984 0.19922c-0.19922-0.19922-0.19922-0.60156-0.19922-1v-0.39844c-0.39844 0.60156-0.19922 0.39844-4.1992 0-3-0.19922-3.1992-0.39844-4.8008-4.3984-0.39844-1.1992-0.39844-1-0.39844-1.6016 0 0.60156 0 0.39844 0.39844 1.6016 1.3984 4 1.8008 4.1992 4.6016 4.3984 3.8008 0.39844 4 0.60156 4.1992 0 0-0.39844 0.19922-1 0.60156-1.3984 0.19922-0.60156 0.39844-1.1992 0.19922-1.8008 0-0.80078-0.19922-1.3984-0.19922-1.6016 0 0.39844 0.19922 0.80078 0.19922 1.6016 0 0.60156 0 1.1992-0.19922 1.8008 0.60156-0.80078 1.3984-1.1992 2.6016-1.1992 1 0 2 0.60156 2.6016 1.3984 0-0.19922-0.19922-0.39844-0.19922-0.60156-0.80469-1.4023-0.60547-2.0039-1.0078-2.2031zm-12-0.40234c-0.19922 0-0.60156-0.19922-0.60156-0.39844 0.39844 0 0.80078 0.19922 1.1992 0.19922 0.003906 0.19922-0.19531 0.19922-0.59766 0.19922zm-0.59766-0.79688c0.19922-0.19922 0.39844-0.19922 0.80078-0.19922 0.19922 0 0.39844 0.19922 0.60156 0.39844-0.40234 0-1.0039-0.19922-1.4023-0.19922zm6 3.1992h-0.80078v0.80078h-0.80078v-0.80078h-0.80078v0.80078h-0.80078v-0.80078h-0.80078v-0.80078h0.80078v0.80078h0.80078v-0.80078h0.80078v0.80078h0.80078v-0.80078h0.80078zm0.59766-3.1992c-0.19922 0-7.6016-0.60156-8-0.80078 0-1.3984 0-2.8008 0.60156-2.8008 0.80078-0.19922 3.8008-0.19922 6 0.60156 0.60156 0.19922 4.3984 3 4.3984 3.1992zm4.8008 1.3984c-0.19922-0.19922-0.19922-0.19922-0.19922-0.39844 0-0.19922 0.19922-0.19922 0.39844 0 0.39844 0 0.60156 0.19922 1 0.39844 0.39844 0.19922 0.60156 0.80078 0.39844 0.80078-0.59766-0.19922-1.1953-0.40234-1.5977-0.80078z"/>
  <path d="m60.199 22.801 0.39844-0.39844c-2.1992-2.1992-6-2.1992-8.1992 0l0.39844 0.39844c2.0039-2 5.4023-2 7.4023 0z"/>
  <path d="m53.199 23.398 0.39844 0.39844c1.6016-1.6016 4-1.6016 5.6016 0l0.39844-0.39844c-1.5977-1.7969-4.5977-1.7969-6.3984 0z"/>
  <path d="m54.199 24.199 0.39844 0.39844c1-1 2.6016-1 3.8008 0l0.39844-0.39844c-1.1953-1.1992-3.3984-1.1992-4.5977 0z"/>
  <path d="m56.398 24.801c-0.80078 0-1.3984 0.60156-1.3984 1.3984 0 0.80078 0.60156 1.6016 1.3984 1.6016 0.80078 0 1.6016-0.60156 1.6016-1.6016s-0.60156-1.3984-1.6016-1.3984z"/>
  <path d="m71.199 59.602 0.39844-0.39844c-2.1992-2.1992-6-2.1992-8.1992 0l0.39844 0.39844c2.2031-2 5.4023-2 7.4023 0z"/>
  <path d="m64.398 60 0.39844 0.39844c1.6016-1.6016 4-1.6016 5.6016 0l0.39844-0.39844c-1.7969-1.8008-4.5977-1.8008-6.3984 0z"/>
  <path d="m65.199 60.801 0.39844 0.39844c1-1 2.6016-1 3.8008 0l0.39844-0.39844c-1.1953-1.1992-3.1953-1.1992-4.5977 0z"/>
  <path d="m67.602 61.602c-0.80078 0-1.3984 0.60156-1.3984 1.3984 0 0.60156 0.60156 1.6016 1.3984 1.6016 0.80078 0 1.6016-0.60156 1.6016-1.6016-0.003906-1-0.80469-1.3984-1.6016-1.3984z"/>
 </g>
</svg>
