<?xml version="1.0" encoding="UTF-8"?>
<svg width="100pt" height="100pt" version="1.1" viewBox="0 0 100 100" xmlns="http://www.w3.org/2000/svg">
 <g>
  <path d="m92.188 9.375h-84.375c-2.5898 0-4.6875 2.0977-4.6875 4.6875v59.375c0 2.5898 2.0977 4.6875 4.6875 4.6875h27.918l-1.1719 9.375h-1.7461c-0.86328 0-1.5625 0.69922-1.5625 1.5625v4.6875h-6.25v3.125h50v-3.125h-6.25v-4.6875c0-0.41406-0.16406-0.8125-0.45703-1.1055s-0.69141-0.45703-1.1055-0.45703h-1.7461l-1.1719-9.375h27.918c2.5898 0 4.6875-2.0977 4.6875-4.6875v-59.375c0-2.5898-2.0977-4.6875-4.6875-4.6875zm-84.375 3.125h84.375c0.41406 0 0.8125 0.16406 1.1055 0.45703s0.45703 0.69141 0.45703 1.1055v48.438h-87.5v-48.438c0-0.86328 0.69922-1.5625 1.5625-1.5625zm57.812 81.25h-31.25v-3.125h31.25zm-3.332-6.25h-24.586l1.1719-9.375h22.242zm29.895-12.5h-84.375c-0.86328 0-1.5625-0.69922-1.5625-1.5625v-7.8125h87.5v7.8125c0 0.41406-0.16406 0.8125-0.45703 1.1055s-0.69141 0.45703-1.1055 0.45703z"/>
  <path d="m81.25 68.75h6.25v3.125h-6.25z"/>
  <path d="m15.625 26.562h12.5v3.125h-12.5z"/>
  <path d="m18.75 32.812h9.375v3.125h-9.375z"/>
  <path d="m21.875 39.062h6.25v3.125h-6.25z"/>
  <path d="m12.5 39.062h6.25v3.125h-6.25z"/>
  <path d="m15.625 45.312h12.5v3.125h-12.5z"/>
  <path d="m12.5 32.812h3.125v3.125h-3.125z"/>
  <path d="m9.375 26.562h3.125v3.125h-3.125z"/>
  <path d="m9.375 45.312h3.125v3.125h-3.125z"/>
  <path d="m34.375 53.125h43.75c0.82812 0.003906 1.6289-0.32422 2.2148-0.91016 0.58594-0.58594 0.91406-1.3867 0.91016-2.2148v-25c0.003906-0.82812-0.32422-1.625-0.91016-2.2148-0.58984-0.58594-1.3867-0.91406-2.2148-0.91016h-43.75c-0.82812-0.003906-1.625 0.32422-2.2109 0.91406-0.58984 0.58594-0.91797 1.3828-0.91406 2.2109v25c0.011719 0.84766 0.35547 1.6602 0.95703 2.2578 0.58594 0.55859 1.3594 0.86719 2.168 0.86719zm19.461-15.258c1.4844 0.89844 3.3438 0.89844 4.8281 0l2.4766-1.4844 14.582 13.617h-38.945l14.586-13.617zm10.094-3.1562 14.195-8.5156v21.773zm-6.875 0.48047c-0.49609 0.29688-1.1133 0.29688-1.6094 0l-16.988-10.191h35.59zm-8.4805-0.48047-14.199 13.258v-21.773z"/>
 </g>
</svg>
