<?xml version="1.0" encoding="UTF-8"?>
<svg width="100pt" height="100pt" version="1.1" viewBox="0 0 100 100" xmlns="http://www.w3.org/2000/svg">
 <g>
  <path d="m58.695 35.344c0.015626-3.0352-1.3281-5.332-3.9883-6.8203-0.5625-0.32813-1.1406-0.57813-1.6875-0.82813-0.28125-0.125-0.5625-0.25-0.82812-0.39062-0.48438-0.23438-0.95312-0.45313-1.4219-0.6875l-0.0625-0.03125c-1.2656-0.59375-2.5469-1.2188-3.7695-1.8789-0.78125-0.4375-1.1406-0.95312-1.1562-1.7344-0.015625-0.67188-0.10938-1.2812-0.20312-1.8633-0.046875-0.21875-0.078125-0.4375-0.10938-0.65625l-0.35156-3.2852-10.07 1.6484s-0.66797 3.375-0.66797 3.9688c0 0.89062-0.375 1.4844-1.3281 2.0469-0.79688 0.48438-1.6289 0.92188-2.4883 1.3281-0.625 0.3125-1.2812 0.59375-1.9375 0.875-0.79688 0.35938-1.625 0.71875-2.457 1.125-3.0039 1.4688-4.5664 3.9727-4.5039 7.2383 0.078126 3.3945 0.0625 6.8516 0.046876 10.195 0 1.4219-0.015626 2.8281-0.015626 4.2539v10.367c0 11.277 0 22.551 0.015626 33.824 0 3.2695 2.1445 5.4727 5.332 5.4883 4.5664 0 9.1484 0.015625 13.715 0.015625 4.1133 0 8.2422 0 12.371-0.015625 3.2539-0.015625 5.5508-2.3125 5.5508-5.6133 0.015624-1.6094 0.015624-3.2383 0.015624-4.8477l-0.015624-14.574c0-12.828 0-26.09 0.015624-39.148zm-9.6602 43.598c-1.2695 1.2695-2.793 2.1055-4.4492 2.6875 0-0.019531 0.019531-0.042968 0.042968-0.0625 0.81641-1.1172 1.5039-2.3203 1.8906-3.6523 0.6875-2.3633-0.0625-4.1484-2.2148-5.3086-0.92578-0.49609-1.8906-0.96875-2.75-1.5898-1.5273-1.0742-3.0312-2.2344-3.1172-4.4922-0.23828 0.34375-0.47266 0.60156-0.62109 0.90234-0.47266 0.81641-0.51562 1.7188-0.41016 2.6211 0.19141 1.4844 0.83984 2.8164 1.5039 4.1289 0.30078 0.60156 0.53906 1.2266 0.73047 1.8711 0.14844 0.57812-0.23828 0.92578-0.77344 0.66406-1.3125-0.55859-2.3438-1.3984-2.4727-2.9883-0.14844 0.0625-0.32422 0.12891-0.45312 0.21484-0.36719 0.21484-0.75391 0.41016-1.0742 0.66406-1.8477 1.375-2.2344 3.2031-1.0977 5.1797 0.25781 0.42969 0.55859 0.83984 0.83984 1.2461-0.21484-0.12891-0.42969-0.25781-0.64453-0.38672-1.6328-0.79688-2.8789-1.8906-3.6953-3.2461-0.81641-1.3555-1.2266-2.9883-1.2031-4.8789 0.019532-2.7305 0.83984-5.2461 2.0195-7.6289 0.85937-1.6992 1.375-3.4609 1.4609-5.3711 0.0625-1.2695-0.0625-2.5156-0.45312-3.8242 1.0312 0.66406 1.8711 1.418 2.5352 2.3633 1.1172 1.5273 1.6328 3.2461 1.4844 5.2656 2.1055-2.1289 3.7617-4.4062 4.6641-7.1562 1.0742-3.1797 1.0117-6.3398-0.34375-9.5195 0.12891 0.0625 0.17188 0.085938 0.23438 0.10547 1.7852 1.1367 3.1367 2.6211 3.9766 4.5781 1.2461 2.9023 1.2461 5.9102 0.62109 8.9414-0.34375 1.5703-0.77344 3.1172-0.71094 4.75 0.019531 0.88281 0.085937 1.7617 0.47266 2.5586 0.10547 0.21484 0.28125 0.38672 0.41016 0.57812 0.085938-0.14844 0.0625-0.25781 0.0625-0.34375-0.042969-1.5898 0.019531-3.1797 0.49609-4.707 0.41016-1.3125 1.0312-2.4727 2.2578-3.2031 0.28125-0.17188 0.55859-0.25781 0.85938-0.38672-0.51562 0.96875-0.6875 1.957-0.64453 2.9648 0.042969 1.5703 0.49609 3.0312 1.1367 4.4492 0.6875 1.4609 1.2695 2.9453 1.5273 4.5586 0.48047 2.8125-0.035156 5.3711-2.0977 7.4531z"/>
  <path d="m83.113 1.6562l-28.816 4.2422c-0.63672 0.09375-1.1094 0.64062-1.1094 1.2852v1.9844c-3.1133-0.27344-5.9883-0.27344-8.6328-0.0625v-2.4023h-7.9414c-0.29297-3.5-3.2344-6.2617-6.8086-6.2617-3.7695 0-6.8359 3.0664-6.8359 6.8359 0 3.207 2.2227 5.8984 5.207 6.6328-0.88281 0.5-1.7031 1.0117-2.4531 1.5234-7.0898 4.8398-9.9258 10.664-10.043 10.91-0.69922 1.4648-0.078126 3.2148 1.3828 3.9219 0.41016 0.19922 0.84766 0.29297 1.2773 0.29297 1.0938 0 2.1484-0.61328 2.6602-1.6602 0.35156-0.71484 8.2422-16.199 32.18-13.805v2.1562c0 0.63672 0.46484 1.1836 1.0977 1.2852l28.816 4.5781c0.78906 0.125 1.5039-0.48438 1.5039-1.2852l0.007813-18.887c-0.003907-0.79297-0.70703-1.4023-1.4922-1.2852zm-53.305 9.0195c-1.8711 0-3.3945-1.5195-3.3945-3.3945 0-1.8711 1.5195-3.3945 3.3945-3.3945 1.8711 0 3.3945 1.5195 3.3945 3.3945-0.003906 1.8711-1.5273 3.3945-3.3945 3.3945z"/>
 </g>
</svg>
