<?xml version="1.0" encoding="UTF-8"?>
<svg width="100pt" height="100pt" version="1.1" viewBox="0 0 100 100" xmlns="http://www.w3.org/2000/svg">
 <path d="m50.012 15.395c3.7109 0 6.7266 3.0039 6.7266 6.7148s-3.0156 6.7188-6.7266 6.7188c-3.7227 0-6.7305-3.0078-6.7305-6.7188s3.0078-6.7148 6.7305-6.7148zm2.9922 73.199v-55.059c4.2891-1.1133 7.6328-4.5625 8.5703-8.9102h12.711l-14.086 27.133h4.5938l12.578-24.371 12.582 24.371h4.5859l-14.082-27.133h11.902c1.4102 0 2.5469-1.1367 2.5469-2.5469s-1.1367-2.5469-2.5469-2.5469h-30.797c-0.96484-4.3164-4.293-7.7305-8.5586-8.8477v-4.4023c0-0.70703-0.57812-1.2812-1.2812-1.2812h-3.3945c-0.71484 0-1.2891 0.57422-1.2891 1.2812v4.3984c-4.2773 1.1094-7.6211 4.5234-8.5859 8.8516h-30.906c-1.4062 0-2.5469 1.1367-2.5469 2.5469s1.1406 2.5469 2.5469 2.5469h12.047l-14.082 27.133h4.5859l12.578-24.371 12.582 24.371h4.5859l-14.082-27.133h12.676c0.94922 4.3555 4.3047 7.8086 8.6016 8.918v55.051h-10.828c-1.7773 0-3.207 1.4375-3.207 3.2031s1.4297 3.2031 3.207 3.2031h27.629c1.7695 0 3.207-1.4375 3.207-3.2031s-1.4375-3.2031-3.207-3.2031zm6.7383-33.305c0 0.007813-0.003907 0.011719-0.003907 0.023438 0 7.0703 5.7461 12.805 12.832 12.805h9.5977c7.0898 0 12.832-5.7344 12.832-12.805 0-0.011719-0.003906-0.015625-0.003906-0.023438zm-19.441 0h-35.254v0.023438c0 7.0703 5.7461 12.805 12.824 12.805h9.6016c7.0898 0 12.828-5.7344 12.828-12.805z" fill-rule="evenodd"/>
</svg>
