<?xml version="1.0" encoding="UTF-8"?>
<svg width="100pt" height="100pt" version="1.1" viewBox="0 0 100 100" xmlns="http://www.w3.org/2000/svg">
 <g>
  <path d="m36.211 16.969c-7.1211 0.75781-13.031 6.5156-14.09 13.637-1.668 11.516 7.1211 13.637 8.1836 18.789-0.91016 0-1.5156 0.75781-1.5156 1.5156 0 0.91016 0.60547 1.5156 1.5156 1.5156h15.305c0.91016 0 1.5156-0.60547 1.5156-1.5156 0-0.75781-0.60547-1.5156-1.5156-1.5156 1.2109-5.4531 8.4844-5.7578 8.4844-16.516-0.003906-9.3945-8.1836-16.969-17.883-15.91zm5.7578 15.457-2.8789 6.9688c-0.30469 0.75781-1.0625 1.2109-1.9688 0.75781-0.75781-0.30469-1.0625-1.2109-0.75781-1.9688l2.2734-5.4531-3.332-1.0625c-0.91016-0.30469-1.3633-1.3633-0.91016-2.1211l2.2734-4.2422c0.45312-0.75781 1.3633-1.0625 2.1211-0.60547 0.75781 0.45312 0.91016 1.3633 0.60547 2.1211l-1.5156 2.5742 3.1836 1.0625c0.75391 0.14844 1.2109 1.0586 0.90625 1.9688z"/>
  <path d="m45.758 58.484h-15.305c-0.91016 0-1.5156-0.60547-1.5156-1.5156s0.60547-1.5156 1.5156-1.5156h15.305c0.91016 0 1.5156 0.60547 1.5156 1.5156s-0.75781 1.5156-1.5156 1.5156z"/>
  <path d="m73.031 95.91v-14.547c0-3.7891-2.2734-7.2734-5.7578-8.7891l-13.031-5.7578-8.0312 29.09z"/>
  <path d="m33.637 75.152-1.3633 20.758h10.152l-1.5156-20.758z"/>
  <path d="m41.363 71.969 1.3633-3.6367-1.3633-4.3945h-8.0312l-1.5156 4.3945 1.3672 3.6367z"/>
  <path d="m7.2734 72.574c-3.4844 1.5156-5.7578 5-5.7578 8.7891v14.547h26.816l-8.0312-29.09z"/>
  <path d="m68.789 45.758c0-5 4.0898-9.0898 9.0898-9.0898s9.0898 4.0898 9.0898 9.0898-4.0898 9.0898-9.0898 9.0898-9.0898-4.0898-9.0898-9.0898z"/>
  <path d="m98.484 61.969v21.211l-22.121 0.003906c-0.15234-0.45312 1.2109-9.5469-7.5742-13.484l-7.5742-3.332v-4.3945c0-1.668 1.3633-3.0312 3.0312-3.0312h7.7266l6.668 8.1836c0.60547 0.75781 1.9688 0.75781 2.5742 0l6.668-8.1836h7.7266c1.5117-0.15234 2.875 1.3633 2.875 3.0273z"/>
  <path d="m38.031 11.668c-0.91016 0-1.5156-0.60547-1.5156-1.5156v-4.5469c0-0.91016 0.60547-1.5156 1.5156-1.5156s1.5156 0.60547 1.5156 1.5156v4.5469c0 0.75781-0.60938 1.5156-1.5156 1.5156z"/>
  <path d="m45.91 13.031c-0.75781-0.30469-1.2109-1.2109-0.75781-1.9688l1.668-4.2422c0.30078-0.75781 1.2109-1.2148 1.9688-0.75781 0.75781 0.30469 1.2109 1.2109 0.75781 1.9688l-1.668 4.0898c-0.30469 0.75781-1.2109 1.2109-1.9688 0.91016z"/>
  <path d="m52.426 17.273c-0.60547-0.60547-0.60547-1.5156 0-2.1211l3.1836-3.1836c0.60547-0.60547 1.5156-0.60547 2.1211 0s0.60547 1.5156 0 2.1211l-3.1836 3.1836c-0.45703 0.60547-1.5156 0.60547-2.1211 0z"/>
  <path d="m21.816 17.727-3.1836-3.1836c-0.60547-0.60547-0.60547-1.5156 0-2.1211 0.60547-0.60547 1.5156-0.60547 2.1211 0l3.1836 3.1836c0.60547 0.60547 0.60547 1.5156 0 2.1211-0.60547 0.60547-1.5117 0.60547-2.1211 0z"/>
  <path d="m28.332 12.426-1.668-4.2422c-0.30469-0.75781 0-1.668 0.75781-1.9688 0.75781-0.30469 1.668 0 1.9688 0.75781l1.668 4.2422c0.30469 0.75781 0 1.668-0.75781 1.9688-0.75391 0.45312-1.5117 0-1.9688-0.75781z"/>
 </g>
</svg>
