<?xml version="1.0" encoding="UTF-8"?>
<svg width="100pt" height="100pt" version="1.1" viewBox="0 0 100 100" xmlns="http://www.w3.org/2000/svg">
 <path d="m32.602 92v-4.8008c-1.1016 1.8008-2.3008 3.1992-3.6016 4.5v0.30078h-14.398v-1c6 0 11.102-3.6016 11.699-13.5h-6.6992c-3.6992 0-6.6992-3-6.6992-6.6992v-35.301c0-3.6992 3-6.6992 6.6992-6.6992h6.6992v-21h34.699l12.602 12.602v8.5h6.6992c3.6992 0 6.6992 3 6.6992 6.6992v35.301c0 3.6992-3 6.6992-6.6992 6.6992h-6.6992v14.398zm36.898-4v-25.801h-2.1016v25.801zm-6.1992 0v-25.801h-2.1016v25.801zm-6.1016 0v-25.801h-2.1016l0.003906 25.801zm-6.1992 0v-25.801h-2v25.801zm-6.1016 0v-25.801h-2.1016l0.003906 25.801zm-6.1992 0v-25.801h-2.1016l0.003906 25.801zm-11.598 0c3.3984-3.6016 5.5-5.6992 5.5-12.398v-13.402h-2.1016v15.398h-0.10156c-0.29688 5.4023-1.8984 6.5039-4.3984 10.402zm53.199-14.5c1.3984 0 2.6016-1.1992 2.6016-2.6016v-35.301c0-1.3984-1.1992-2.6016-2.6016-2.6016h-6.6992v6.1992l-47.203 0.003907v-6.1992h-6.6992c-1.3984 0-2.6016 1.1992-2.6016 2.6016v35.301c0 1.3984 1.1992 2.6016 2.6016 2.6016h6.6992v-15.402h47.102v15.398zm-10.801-38.398v-10.902h-12.301v-12.301h-26.699v23.199zm-2-15l-6.1992-6.1992v6.1992z"/>
</svg>
