<?xml version="1.0" encoding="UTF-8"?>
<svg width="100pt" height="100pt" version="1.1" viewBox="0 0 100 100" xmlns="http://www.w3.org/2000/svg">
 <path d="m43.75 96.875c0.52344 0 1.0117-0.26172 1.3008-0.69531l4.9492-7.4297 4.9492 7.4258c0.28906 0.43359 0.77734 0.69922 1.3008 0.69922h29.688c0.41406 0 0.8125-0.16406 1.1055-0.45703s0.45703-0.69141 0.45703-1.1055v-59.375c-0.003906-0.5-0.24219-0.97266-0.64844-1.2656-0.10156-0.078125-10.289-7.7656-10.289-29.984 0-0.41406-0.16406-0.8125-0.45703-1.1055s-0.69141-0.45703-1.1055-0.45703h-12.5c-0.11719 0.011719-0.23047 0.027344-0.34375 0.050781-0.070312 0.015625-0.13672 0.035157-0.20312 0.058594-0.035156 0.015625-0.13672 0.046875-0.15625 0.054687-3.6953 1.7617-7.707 2.7695-11.797 2.9609-4.0898-0.19531-8.1016-1.2031-11.805-2.9609-0.015624 0-0.11719-0.039062-0.15625-0.054687-0.066406-0.023437-0.13281-0.042969-0.20312-0.058594-0.066407-0.015625-0.29297-0.050781-0.33594-0.050781h-12.5c-0.86328 0-1.5625 0.69922-1.5625 1.5625 0 22.176-10.148 29.879-10.289 29.984-0.40625 0.29297-0.64844 0.76172-0.64844 1.2656v59.375c0 0.41406 0.16406 0.8125 0.45703 1.1055s0.69141 0.45703 1.1055 0.45703zm-28.125-37.5h32.812v6.25h-32.812zm68.75 0v6.25h-32.812v-6.25zm0 15.625h-32.812v-6.25h32.812zm0 9.375h-32.812v-6.25h32.812zm-68.75-6.25h32.812v6.25h-32.812zm35.938-21.875v-21.562l9.375-22.266v43.828zm-3.125-21.562v21.562h-9.375v-43.824zm0 34.062v6.25h-32.812v-6.25zm-5.5234 25h-27.289v-6.25h31.457zm14.172 0-4.168-6.25h31.457v6.25zm27.289-57.07v19.57h-10.938v-50h0.015625c0.40625 19.797 8.5117 28.328 10.922 30.43zm-14.062-30.43v50h-6.25v-50zm-20.312 3.125c3.2734-0.078125 6.5156-0.69141 9.5938-1.8125l-9.5938 22.785-9.5938-22.785c3.0781 1.1211 6.3203 1.7344 9.5938 1.8125zm-14.062-3.125v50h-6.25v-50zm-9.3906 0h0.015625v50h-10.938v-19.57c2.4102-2.1016 10.516-10.633 10.922-30.43z"/>
</svg>
