<?xml version="1.0" encoding="UTF-8"?>
<svg width="100pt" height="100pt" version="1.1" viewBox="0 0 100 100" xmlns="http://www.w3.org/2000/svg">
 <g>
  <path d="m32.559 86.402h-7.8594c-2.0195 0-3.668-1.6445-3.668-3.668v-7.7695h15.195v7.7695c0 2.0234-1.6484 3.668-3.668 3.668zm-8.168-8.0742v4.4102c0 0.17188 0.13672 0.30859 0.30859 0.30859h7.8594c0.17188 0 0.30859-0.13672 0.30859-0.30859v-4.4102z"/>
  <path d="m74.789 86.402h-7.8594c-2.0195 0-3.6602-1.6445-3.6602-3.668v-7.7695h15.188v7.7695c0 2.0234-1.6445 3.668-3.668 3.668zm-8.1602-8.0742v4.4102c0 0.17188 0.13672 0.30859 0.30078 0.30859h7.8594c0.17188 0 0.30859-0.13672 0.30859-0.30859v-4.4102z"/>
  <path d="m81.883 71.578-2.5117-1.4453c-0.48438-0.27734-0.89453-0.41016-1.2773-0.41016h-18.047v-12.074c0-6.0195 4.9023-10.918 10.918-10.918 6.0234 0 10.918 4.8984 10.918 10.918zm-18.477-5.2188h14.684c0.14453 0 0.28906 0.007813 0.43359 0.019531v-8.7305c0-4.1641-3.3945-7.5586-7.5586-7.5586-4.1641 0-7.5586 3.3945-7.5586 7.5586z"/>
  <path d="m78.09 78.328h-56.688c-3.3008 0-5.9844-2.6836-5.9844-5.9844s2.6836-5.9844 5.9844-5.9844h56.688c3.3008 0 5.9805 2.6836 5.9805 5.9844 0.003907 3.3008-2.6797 5.9844-5.9805 5.9844zm-56.688-8.6055c-1.4492 0-2.625 1.1797-2.625 2.625 0 1.4453 1.1758 2.625 2.625 2.625h56.688c1.4414 0 2.625-1.1797 2.625-2.625 0-1.4453-1.1797-2.625-2.625-2.625z"/>
  <path d="m17.613 71.59v-13.941c0-6.0195 4.8945-10.918 10.918-10.918 6.0156 0 10.918 4.8984 10.918 10.918v12.07h-18.047c-0.38672 0-0.79297 0.12891-1.2734 0.40625zm10.914-21.5c-4.168 0-7.5586 3.3945-7.5586 7.5586v8.7305c0.14453-0.015625 0.28906-0.019531 0.43359-0.019531h14.684v-8.7148c0-4.1641-3.3906-7.5547-7.5586-7.5547z"/>
  <path d="m41.84 47.324h15.812v3.3594h-15.812z"/>
  <path d="m41.84 54.043h15.812v3.3594h-15.812z"/>
  <path d="m41.84 60.762h15.812v3.3594h-15.812z"/>
  <path d="m28.582 65.27c-2.6172 0-4.75-2.1328-4.75-4.75 0-2.6172 2.1328-4.75 4.75-4.75 2.6172 0 4.75 2.1328 4.75 4.75 0 2.6211-2.1328 4.75-4.75 4.75zm0-6.1367c-0.76953 0-1.3906 0.62109-1.3906 1.3906 0 0.76953 0.62109 1.3906 1.3906 1.3906s1.3906-0.62109 1.3906-1.3906c0-0.76953-0.625-1.3906-1.3906-1.3906z"/>
  <path d="m70.965 65.27c-2.6172 0-4.75-2.1328-4.75-4.75 0-2.6172 2.1328-4.75 4.75-4.75 2.6172 0 4.75 2.1328 4.75 4.75 0 2.6211-2.1328 4.75-4.75 4.75zm0-6.1367c-0.76953 0-1.3906 0.62109-1.3906 1.3906 0 0.76953 0.62109 1.3906 1.3906 1.3906 0.76953 0 1.3906-0.62109 1.3906-1.3906 0-0.76953-0.625-1.3906-1.3906-1.3906z"/>
  <path d="m29.43 48.41h-3.3594v-23.621c0-3.8711 2.1641-11.195 10.359-11.195h21.223v3.3594h-21.223c-6.75 0-6.9922 7.0391-7 7.8438z"/>
  <path d="m74.285 48.41h-3.3594v-23.621c-0.007812-0.79687-0.24219-7.8359-6.9922-7.8359h-21.234v-3.3594h21.23c8.1875 0 10.352 7.3242 10.352 11.195z"/>
  <path d="m29.816 49.492-2.5781-2.1602c0.27734-0.33203 6.9492-8.125 22.512-8.125s22.234 7.793 22.512 8.125l-2.5781 2.1523c-0.058594-0.0625-6.0508-6.918-19.934-6.918-13.895 0-19.875 6.8555-19.934 6.9258z"/>
  <path d="m67.355 47.297-2.4688-1.3125c-4.2656-2.2656-9.3633-3.418-15.145-3.418-5.5586 0-10.492 1.0703-14.664 3.1758l-2.4414 1.2305 0.003906-24.875h34.715zm-17.609-8.0898c5.2734 0 10.059 0.89062 14.25 2.6445v-16.395h-27.996v16.191c4.082-1.6211 8.6953-2.4414 13.746-2.4414z"/>
  <path d="m48.324 23.777h3.3594v16.094h-3.3594z"/>
  <path d="m24.211 46.332h-10.359v-17.238h10.359zm-7-3.3594h3.6406v-10.52h-3.6406z"/>
  <path d="m86.148 46.332h-10.359l-0.003906-17.238h10.359zm-7.0039-3.3594h3.6406l0.003906-10.52h-3.6406z"/>
 </g>
</svg>
