<?xml version="1.0" encoding="UTF-8"?>
<svg width="100pt" height="100pt" version="1.1" viewBox="0 0 100 100" xmlns="http://www.w3.org/2000/svg">
 <g>
  <path d="m86.133 49.492l-1.8359-24.16c-0.42969-5.5859-5-9.9414-10.41-9.9414h-47.773c-5.4102 0-9.9805 4.375-10.41 9.9414l-1.8359 24.16c-5.8203 0.46875-9.5312 5.1562-9.5312 10.098v26.152c0 1.5625 1.2695 2.832 2.832 2.832h1.8359v8.2031c0 1.5625 1.2695 2.832 2.832 2.832h13.789c1.5625 0 2.832-1.2695 2.832-2.832v-8.2031h43.047v8.2031c0 1.5625 1.2695 2.832 2.832 2.832h13.789c1.5625 0 2.832-1.2695 2.832-2.832v-8.2031h1.8359c1.5625 0 2.832-1.2695 2.832-2.832v-26.152c0.039062-4.0234-2.6758-9.3164-9.4922-10.098zm-64.766-23.711c0.19531-2.6367 2.2852-4.707 4.7656-4.707h47.754c2.4609 0 4.5508 2.0703 4.7656 4.707l1.7383 22.832c-20.195-2.9102-40.566-2.9102-60.742 0zm1.4453 68.164h-8.125v-5.3711h8.125zm62.5 0h-8.125v-5.3711h8.125zm4.668-11.035h-79.961v-23.32c0-2.1289 1.5234-3.9258 3.6328-4.3164 24.121-4.2773 48.574-4.2773 72.715 0 2.1094 0.37109 3.6328 2.1875 3.6328 4.3164v23.32z"/>
  <path d="m25.586 59.277c-5.3711 0-9.7266 4.3555-9.7266 9.7266s4.375 9.7266 9.7266 9.7266c5.3516 0 9.7266-4.3555 9.7266-9.7266 0-5.3516-4.3555-9.7266-9.7266-9.7266zm0 13.809c-2.2461 0-4.0625-1.8164-4.0625-4.0625 0-2.2461 1.8164-4.0625 4.0625-4.0625 2.2461 0 4.0625 1.8164 4.0625 4.0625 0 2.2266-1.8164 4.0625-4.0625 4.0625z"/>
  <path d="m74.414 59.277c-5.3711 0-9.7266 4.3555-9.7266 9.7266s4.375 9.7266 9.7266 9.7266c5.3516 0 9.7266-4.3555 9.7266-9.7266 0-5.3516-4.3555-9.7266-9.7266-9.7266zm0 13.809c-2.2461 0-4.0625-1.8164-4.0625-4.0625 0-2.2461 1.8164-4.0625 4.0625-4.0625 2.2461 0 4.0625 1.8164 4.0625 4.0625 0 2.2266-1.8359 4.0625-4.0625 4.0625z"/>
  <path d="m34.98 11.953h2.5781v-9.3359h3.2812v-2.2266h-9.1406v2.2266h3.2812z"/>
  <path d="m43.125 11.953l1.0742-2.5h4.8438l1.0742 2.5h2.7539l-5-11.562h-2.5l-5 11.562zm3.5156-8.125l1.4453 3.3594h-2.8906z"/>
  <path d="m56.074 11.953l2.4414-3.8086 2.4609 3.8086h3.1445l-3.9062-5.9766 3.6133-5.5859h-3.1055l-2.207 3.418-2.207-3.418h-3.0859l3.6133 5.6445-3.8867 5.918z"/>
  <path d="m65.723 0.39062h2.5781v11.562h-2.5781z"/>
  <path d="m57.012 71.836h-14.004c-1.5625 0-2.832 1.2695-2.832 2.832s1.2695 2.832 2.832 2.832h14.004c1.5625 0 2.832-1.2695 2.832-2.832s-1.2695-2.832-2.832-2.832z"/>
  <path d="m57.012 60.527h-14.004c-1.5625 0-2.832 1.2695-2.832 2.832s1.2695 2.832 2.832 2.832h14.004c1.5625 0 2.832-1.2695 2.832-2.832s-1.2695-2.832-2.832-2.832z"/>
 </g>
</svg>
