<?xml version="1.0" encoding="UTF-8"?>
<svg width="100pt" height="100pt" version="1.1" viewBox="0 0 100 100" xmlns="http://www.w3.org/2000/svg">
 <g>
  <path d="m29.422 97.496h-9.5352c-2.4297 0-4.4062-1.9805-4.4062-4.4102v-9.3828h18.344v9.3828c-0.003907 2.4336-1.9805 4.4102-4.4023 4.4102zm-9.9453-9.793v5.3789c0 0.23047 0.17969 0.41016 0.40625 0.41016h9.5352c0.21875 0 0.39844-0.1875 0.39844-0.41016v-5.3789z"/>
  <path d="m80.617 97.496h-9.5273c-2.4297 0-4.4062-1.9805-4.4062-4.4102v-9.3828h18.355v9.3828c-0.007812 2.4336-1.9844 4.4102-4.4219 4.4102zm-9.9336-9.793v5.3789c0 0.22656 0.1875 0.41016 0.40625 0.41016h9.5273c0.22656 0 0.41406-0.18359 0.41406-0.41016v-5.3789z"/>
  <path d="m86.742 87.703h-72.98v-30.512l5.4258-30 62.133 0.003906 5.3945 29.641zm-68.984-4h64.984v-26.508l-4.7617-25.996h-55.453l-4.793 26.355z"/>
  <path d="m93.363 87.703h-86.727v-85.199h86.73zm-82.727-4h78.727v-77.195h-78.727z"/>
  <path d="m77.422 59.449h-54.34l0.03125-2.5469 4.0195-22.07h46.242l4.0508 22.617zm-49.973-4h45.641l-3.0586-16.613h-39.562z"/>
  <path d="m34.008 78.086h-8.2383c-3.0938 0-5.6211-2.5195-5.6211-5.6133 0-3.0977 2.5234-5.6172 5.6211-5.6172h8.2383c3.0938 0 5.6211 2.5195 5.6211 5.6172 0 3.0898-2.5234 5.6133-5.6211 5.6133zm-8.2383-7.2305c-0.89062 0-1.6172 0.72266-1.6172 1.6133s0.72656 1.6133 1.6172 1.6133h8.2383c0.89063 0 1.6172-0.72266 1.6172-1.6133s-0.72656-1.6133-1.6172-1.6133z"/>
  <path d="m74.23 78.086h-8.2461c-3.0977 0-5.6094-2.5195-5.6094-5.6133 0-3.0977 2.5156-5.6172 5.6094-5.6172h8.2461c3.0977 0 5.6133 2.5195 5.6133 5.6172 0 3.0898-2.5195 5.6133-5.6133 5.6133zm-8.2461-7.2305c-0.89062 0-1.6094 0.72266-1.6094 1.6133s0.71875 1.6133 1.6094 1.6133h8.2461c0.89062 0 1.6094-0.72266 1.6094-1.6133s-0.71875-1.6133-1.6094-1.6133z"/>
  <path d="m41.598 65.352h16.797v4.0039h-16.797z"/>
  <path d="m41.598 70.473h16.797v4.0039h-16.797z"/>
  <path d="m41.598 75.582h16.797v4.0039h-16.797z"/>
  <path d="m63.152 92.598h-26.738v-8.8945h26.738l0.003906 8.8945zm-22.734-4h18.734v-0.89062l-18.734-0.003906z"/>
 </g>
</svg>
