<?xml version="1.0" encoding="UTF-8"?>
<svg width="100pt" height="100pt" version="1.1" viewBox="0 0 100 100" xmlns="http://www.w3.org/2000/svg">
 <path d="m9.1758 43.352c-0.42188-0.55469-1.8164-2.8438-1.8164-6.75 0-7.6055 5.1172-12.77 10.328-12.77 2.4609 0 3.6836 0.42188 4.1836 0.53125 1.1797-1.4258 15.375-19.676 38.691-19.676 19.398 0 39.438 8.0078 39.438 35.918 0 15.043-9.375 25.207-15.836 27.645-2.7969 1.0547-3.1992 3.0273-3.2031 4.6016 0 1.6016 0.21094 5.2148 0.58984 7.9961 0.1875 1.375 2.3242 2.1953 3.6953 4.1406 1.3711 1.9453 2.1172 3.2305 2.3594 5.2227 0.1875 1.5312 0 1.9453-1.1016 0.49609-1.1094-1.4609-3.3867-5.0586-8.4883-5.0586-0.41406 0-1.4609-0.31641-2.8359 1.0586-1.3711 1.3711-3.3164 3.6562-4.0039 3.8906-0.94141 0.31641-2.9766 2.1719-3.7734 3.4297-0.80078 1.2578-1.2578 1.9727-1.2578 0.34375 0-1.6055 0.066407-2.832 1.9453-5.2617 1.8906-2.4453 3.082-3.8672 3.4297-4.2305-2.9688 0.90625-5.2461 0.80078-8.9219 2.9766-1.2812 0.75781-1.5664 0.52344-0.49609-0.93359 1.1953-1.6328 2.3828-2.6641 5.3008-3.8711 2.75-1.1328 6.4844-1.5938 7.3516-1.7266 0.80469-0.125 1.6719-1.1562 1.875-3.1172 0.15234-1.4805 0.51953-6.1406-0.19141-7.8555-0.44531-1.0742-3.4531-1.5898-6.1758-7.4375-1.1758 0.72656-3.832 1.8125-6.1133 2.4062-1.0586 0.27344-1.3125 3.8359-1.4375 6.4023-0.125 2.6289 0.34375 6.4062 0.45703 7.4336 0.11328 1.0312 0.33594 1.6094-0.86719 2.1875-3.2422 1.5625-3.0742 2.5547-5.0234 4.5273-1.6367 1.6562-2.2148 2.9414-2.4805 3.5859-0.42969 1.0352-0.66406 0.4375-0.65234-0.50391 0.015625-1.582 0.25781-3.6211 1.1445-5.2383-2.0898 0.90625-4.5703 1.9727-6.2852 2.4336-1.7148 0.45703-3.6719 0.16016-5.8008 0.92578-1.7773 0.63672-1.8438 0.80469-2.7617 1.1445-0.91406 0.34375-0.48828-0.42578 0.62109-1.4883 0.99219-0.95703 4.5781-2.7617 6.5234-3.332 1.9453-0.57031 4.3047-1.9141 4.7344-2.168-0.63281-0.73438-2.5586-1.1406-4.2773-1.1406-1.0117 0-2.1211 0.10547-3.1523 0.21875-0.875 0.097656-1-0.21094 0.44141-1.1641 1.5625-1.0312 4.8164-1.0078 6.418-1.0078s3.2305 0.097656 4.3984 0.097656c0.89062 0 1.7773-0.82812 2.1094-2.9961 0.26953-1.7773 0.62109-6.6055 0.63281-9.0117-1.9648-1.2969-7.75-3.6445-7.75-14.234-2.6016-5.0938-5.9336-6.0195-9.3984-6.0195-5.1133 0-7.2539 4.293-18.527 0.59375-2.1562-0.70703-4.2891-0.32812-7.1797 2.1289-4.6055 3.9219-10.363 13.336-12.645 21.609-1.3594 4.9219-2.0742 9.8203-2.7031 9.8203-0.91797 0-0.73438-4.1367-0.4375-6.2656 1.5898-11.398 5.5117-23.137 8.9258-30.508z"/>
</svg>
