<?xml version="1.0" encoding="UTF-8"?>
<svg width="100pt" height="100pt" version="1.1" viewBox="0 0 100 100" xmlns="http://www.w3.org/2000/svg">
 <path d="m50.02 91.668c-9.1914 0-16.668-7.4766-16.668-16.668s7.4766-16.668 16.668-16.668c9.1914 0 16.664 7.4766 16.664 16.668s-7.4727 16.668-16.664 16.668m11.434-38.875l8.1758-8.1797c0.78516-0.78125 1.2227-1.8438 1.2227-2.9453v-37.5c0-2.3008-1.8672-4.168-4.168-4.168h-33.332c-2.3008 0-4.168 1.8672-4.168 4.168v37.5c0 1.1211 0.45312 2.1953 1.2539 2.9766l8.2734 8.0898c-8.1133 4.1328-13.691 12.555-13.691 22.266 0 13.789 11.211 25 25 25 13.785 0 25-11.211 25-25 0-9.668-5.5234-18.051-13.566-22.207" fill-rule="evenodd"/>
</svg>
