<?xml version="1.0" encoding="UTF-8"?>
<svg width="100pt" height="100pt" version="1.1" viewBox="0 0 100 100" xmlns="http://www.w3.org/2000/svg">
 <g>
  <path d="m53.332 50v-3.332l-6.6641-3.3359-3.3359 10-3.332 6.668-16.668 10-10 10v3.332l16.668 6.668 6.668-6.668 3.332-10 10-6.6641h6.668v-3.3359h-4.168l7.5-10v-3.332l-3.332-3.332z"/>
  <path d="m80 23.332v3.3359l-6.668-2.2266v-7.7734h-3.332v6.6641l-3.332-3.332-10-16.668h-6.668l13.332 20-3.332 10h-3.332v3.3359l6.6641 3.332 3.3359 3.332-3.3359 3.3359 3.3359 3.332 3.332-3.332 6.668-10v-3.3359h6.6641v-10z"/>
  <path d="m20 90h3.332v3.332h-3.332z"/>
  <path d="m66.668 13.332h3.332v3.332h-3.332z"/>
 </g>
</svg>
